<?xml version="1.0" encoding="utf-8" standalone="no"?>
<!DOCTYPE svg PUBLIC "-//W3C//DTD SVG 1.1//EN"
  "http://www.w3.org/Graphics/SVG/1.1/DTD/svg11.dtd">
<svg xmlns:xlink="http://www.w3.org/1999/xlink" width="453.7125pt" height="334.740235pt" viewBox="0 0 453.7125 334.740235" xmlns="http://www.w3.org/2000/svg" version="1.1">
 <metadata>
  <rdf:RDF xmlns:dc="http://purl.org/dc/elements/1.1/" xmlns:cc="http://creativecommons.org/ns#" xmlns:rdf="http://www.w3.org/1999/02/22-rdf-syntax-ns#">
   <cc:Work>
    <dc:type rdf:resource="http://purl.org/dc/dcmitype/StillImage"/>
    <dc:date>2026-05-23T13:03:51.330177</dc:date>
    <dc:format>image/svg+xml</dc:format>
    <dc:creator>
     <cc:Agent>
      <dc:title>Matplotlib v3.10.6, https://matplotlib.org/</dc:title>
     </cc:Agent>
    </dc:creator>
   </cc:Work>
  </rdf:RDF>
 </metadata>
 <defs>
  <style type="text/css">*{stroke-linejoin: round; stroke-linecap: butt}</style>
 </defs>
 <g id="figure_1">
  <g id="patch_1">
   <path d="M 0 334.740235 
L 453.7125 334.740235 
L 453.7125 0 
L 0 0 
z
" style="fill: #ffffff"/>
  </g>
  <g id="axes_1">
   <g id="patch_2">
    <path d="M 49.825 305.055235 
L 428.7 305.055235 
L 428.7 75.481475 
L 49.825 75.481475 
z
" style="fill: #ffffff"/>
   </g>
   <g id="matplotlib.axis_1">
    <g id="xtick_1">
     <g id="line2d_1">
      <defs>
       <path id="mbe08345d8b" d="M 0 0 
L 0 3.5 
" style="stroke: #000000; stroke-width: 0.8"/>
      </defs>
      <g>
       <use xlink:href="#mbe08345d8b" x="49.825" y="305.055235" style="stroke: #000000; stroke-width: 0.8"/>
      </g>
     </g>
     <g id="text_1">
      <!-- 0.00 -->
      <g transform="translate(32.0125 324.212735) scale(0.16 -0.16)">
       <defs>
        <path id="DejaVuSans-30" d="M 2034 4250 
Q 1547 4250 1301 3770 
Q 1056 3291 1056 2328 
Q 1056 1369 1301 889 
Q 1547 409 2034 409 
Q 2525 409 2770 889 
Q 3016 1369 3016 2328 
Q 3016 3291 2770 3770 
Q 2525 4250 2034 4250 
z
M 2034 4750 
Q 2819 4750 3233 4129 
Q 3647 3509 3647 2328 
Q 3647 1150 3233 529 
Q 2819 -91 2034 -91 
Q 1250 -91 836 529 
Q 422 1150 422 2328 
Q 422 3509 836 4129 
Q 1250 4750 2034 4750 
z
" transform="scale(0.015625)"/>
        <path id="DejaVuSans-2e" d="M 684 794 
L 1344 794 
L 1344 0 
L 684 0 
L 684 794 
z
" transform="scale(0.015625)"/>
       </defs>
       <use xlink:href="#DejaVuSans-30"/>
       <use xlink:href="#DejaVuSans-2e" transform="translate(63.623047 0)"/>
       <use xlink:href="#DejaVuSans-30" transform="translate(95.410156 0)"/>
       <use xlink:href="#DejaVuSans-30" transform="translate(159.033203 0)"/>
      </g>
     </g>
    </g>
    <g id="xtick_2">
     <g id="line2d_2">
      <g>
       <use xlink:href="#mbe08345d8b" x="144.54375" y="305.055235" style="stroke: #000000; stroke-width: 0.8"/>
      </g>
     </g>
     <g id="text_2">
      <!-- 0.05 -->
      <g transform="translate(126.73125 324.212735) scale(0.16 -0.16)">
       <defs>
        <path id="DejaVuSans-35" d="M 691 4666 
L 3169 4666 
L 3169 4134 
L 1269 4134 
L 1269 2991 
Q 1406 3038 1543 3061 
Q 1681 3084 1819 3084 
Q 2600 3084 3056 2656 
Q 3513 2228 3513 1497 
Q 3513 744 3044 326 
Q 2575 -91 1722 -91 
Q 1428 -91 1123 -41 
Q 819 9 494 109 
L 494 744 
Q 775 591 1075 516 
Q 1375 441 1709 441 
Q 2250 441 2565 725 
Q 2881 1009 2881 1497 
Q 2881 1984 2565 2268 
Q 2250 2553 1709 2553 
Q 1456 2553 1204 2497 
Q 953 2441 691 2322 
L 691 4666 
z
" transform="scale(0.015625)"/>
       </defs>
       <use xlink:href="#DejaVuSans-30"/>
       <use xlink:href="#DejaVuSans-2e" transform="translate(63.623047 0)"/>
       <use xlink:href="#DejaVuSans-30" transform="translate(95.410156 0)"/>
       <use xlink:href="#DejaVuSans-35" transform="translate(159.033203 0)"/>
      </g>
     </g>
    </g>
    <g id="xtick_3">
     <g id="line2d_3">
      <g>
       <use xlink:href="#mbe08345d8b" x="239.2625" y="305.055235" style="stroke: #000000; stroke-width: 0.8"/>
      </g>
     </g>
     <g id="text_3">
      <!-- 0.10 -->
      <g transform="translate(221.45 324.212735) scale(0.16 -0.16)">
       <defs>
        <path id="DejaVuSans-31" d="M 794 531 
L 1825 531 
L 1825 4091 
L 703 3866 
L 703 4441 
L 1819 4666 
L 2450 4666 
L 2450 531 
L 3481 531 
L 3481 0 
L 794 0 
L 794 531 
z
" transform="scale(0.015625)"/>
       </defs>
       <use xlink:href="#DejaVuSans-30"/>
       <use xlink:href="#DejaVuSans-2e" transform="translate(63.623047 0)"/>
       <use xlink:href="#DejaVuSans-31" transform="translate(95.410156 0)"/>
       <use xlink:href="#DejaVuSans-30" transform="translate(159.033203 0)"/>
      </g>
     </g>
    </g>
    <g id="xtick_4">
     <g id="line2d_4">
      <g>
       <use xlink:href="#mbe08345d8b" x="333.98125" y="305.055235" style="stroke: #000000; stroke-width: 0.8"/>
      </g>
     </g>
     <g id="text_4">
      <!-- 0.15 -->
      <g transform="translate(316.16875 324.212735) scale(0.16 -0.16)">
       <use xlink:href="#DejaVuSans-30"/>
       <use xlink:href="#DejaVuSans-2e" transform="translate(63.623047 0)"/>
       <use xlink:href="#DejaVuSans-31" transform="translate(95.410156 0)"/>
       <use xlink:href="#DejaVuSans-35" transform="translate(159.033203 0)"/>
      </g>
     </g>
    </g>
    <g id="xtick_5">
     <g id="line2d_5">
      <g>
       <use xlink:href="#mbe08345d8b" x="428.7" y="305.055235" style="stroke: #000000; stroke-width: 0.8"/>
      </g>
     </g>
     <g id="text_5">
      <!-- 0.20 -->
      <g transform="translate(410.8875 324.212735) scale(0.16 -0.16)">
       <defs>
        <path id="DejaVuSans-32" d="M 1228 531 
L 3431 531 
L 3431 0 
L 469 0 
L 469 531 
Q 828 903 1448 1529 
Q 2069 2156 2228 2338 
Q 2531 2678 2651 2914 
Q 2772 3150 2772 3378 
Q 2772 3750 2511 3984 
Q 2250 4219 1831 4219 
Q 1534 4219 1204 4116 
Q 875 4013 500 3803 
L 500 4441 
Q 881 4594 1212 4672 
Q 1544 4750 1819 4750 
Q 2544 4750 2975 4387 
Q 3406 4025 3406 3419 
Q 3406 3131 3298 2873 
Q 3191 2616 2906 2266 
Q 2828 2175 2409 1742 
Q 1991 1309 1228 531 
z
" transform="scale(0.015625)"/>
       </defs>
       <use xlink:href="#DejaVuSans-30"/>
       <use xlink:href="#DejaVuSans-2e" transform="translate(63.623047 0)"/>
       <use xlink:href="#DejaVuSans-32" transform="translate(95.410156 0)"/>
       <use xlink:href="#DejaVuSans-30" transform="translate(159.033203 0)"/>
      </g>
     </g>
    </g>
   </g>
   <g id="matplotlib.axis_2">
    <g id="ytick_1">
     <g id="line2d_6">
      <defs>
       <path id="macdf2c046a" d="M 0 0 
L -3.5 0 
" style="stroke: #000000; stroke-width: 0.8"/>
      </defs>
      <g>
       <use xlink:href="#macdf2c046a" x="49.825" y="305.055235" style="stroke: #000000; stroke-width: 0.8"/>
      </g>
     </g>
     <g id="text_6">
      <!-- 0.00 -->
      <g transform="translate(7.2 311.133985) scale(0.16 -0.16)">
       <use xlink:href="#DejaVuSans-30"/>
       <use xlink:href="#DejaVuSans-2e" transform="translate(63.623047 0)"/>
       <use xlink:href="#DejaVuSans-30" transform="translate(95.410156 0)"/>
       <use xlink:href="#DejaVuSans-30" transform="translate(159.033203 0)"/>
      </g>
     </g>
    </g>
    <g id="ytick_2">
     <g id="line2d_7">
      <g>
       <use xlink:href="#macdf2c046a" x="49.825" y="259.140483" style="stroke: #000000; stroke-width: 0.8"/>
      </g>
     </g>
     <g id="text_7">
      <!-- 0.01 -->
      <g transform="translate(7.2 265.219233) scale(0.16 -0.16)">
       <use xlink:href="#DejaVuSans-30"/>
       <use xlink:href="#DejaVuSans-2e" transform="translate(63.623047 0)"/>
       <use xlink:href="#DejaVuSans-30" transform="translate(95.410156 0)"/>
       <use xlink:href="#DejaVuSans-31" transform="translate(159.033203 0)"/>
      </g>
     </g>
    </g>
    <g id="ytick_3">
     <g id="line2d_8">
      <g>
       <use xlink:href="#macdf2c046a" x="49.825" y="213.225731" style="stroke: #000000; stroke-width: 0.8"/>
      </g>
     </g>
     <g id="text_8">
      <!-- 0.02 -->
      <g transform="translate(7.2 219.304481) scale(0.16 -0.16)">
       <use xlink:href="#DejaVuSans-30"/>
       <use xlink:href="#DejaVuSans-2e" transform="translate(63.623047 0)"/>
       <use xlink:href="#DejaVuSans-30" transform="translate(95.410156 0)"/>
       <use xlink:href="#DejaVuSans-32" transform="translate(159.033203 0)"/>
      </g>
     </g>
    </g>
    <g id="ytick_4">
     <g id="line2d_9">
      <g>
       <use xlink:href="#macdf2c046a" x="49.825" y="167.310979" style="stroke: #000000; stroke-width: 0.8"/>
      </g>
     </g>
     <g id="text_9">
      <!-- 0.03 -->
      <g transform="translate(7.2 173.389729) scale(0.16 -0.16)">
       <defs>
        <path id="DejaVuSans-33" d="M 2597 2516 
Q 3050 2419 3304 2112 
Q 3559 1806 3559 1356 
Q 3559 666 3084 287 
Q 2609 -91 1734 -91 
Q 1441 -91 1130 -33 
Q 819 25 488 141 
L 488 750 
Q 750 597 1062 519 
Q 1375 441 1716 441 
Q 2309 441 2620 675 
Q 2931 909 2931 1356 
Q 2931 1769 2642 2001 
Q 2353 2234 1838 2234 
L 1294 2234 
L 1294 2753 
L 1863 2753 
Q 2328 2753 2575 2939 
Q 2822 3125 2822 3475 
Q 2822 3834 2567 4026 
Q 2313 4219 1838 4219 
Q 1578 4219 1281 4162 
Q 984 4106 628 3988 
L 628 4550 
Q 988 4650 1302 4700 
Q 1616 4750 1894 4750 
Q 2613 4750 3031 4423 
Q 3450 4097 3450 3541 
Q 3450 3153 3228 2886 
Q 3006 2619 2597 2516 
z
" transform="scale(0.015625)"/>
       </defs>
       <use xlink:href="#DejaVuSans-30"/>
       <use xlink:href="#DejaVuSans-2e" transform="translate(63.623047 0)"/>
       <use xlink:href="#DejaVuSans-30" transform="translate(95.410156 0)"/>
       <use xlink:href="#DejaVuSans-33" transform="translate(159.033203 0)"/>
      </g>
     </g>
    </g>
    <g id="ytick_5">
     <g id="line2d_10">
      <g>
       <use xlink:href="#macdf2c046a" x="49.825" y="121.396227" style="stroke: #000000; stroke-width: 0.8"/>
      </g>
     </g>
     <g id="text_10">
      <!-- 0.04 -->
      <g transform="translate(7.2 127.474977) scale(0.16 -0.16)">
       <defs>
        <path id="DejaVuSans-34" d="M 2419 4116 
L 825 1625 
L 2419 1625 
L 2419 4116 
z
M 2253 4666 
L 3047 4666 
L 3047 1625 
L 3713 1625 
L 3713 1100 
L 3047 1100 
L 3047 0 
L 2419 0 
L 2419 1100 
L 313 1100 
L 313 1709 
L 2253 4666 
z
" transform="scale(0.015625)"/>
       </defs>
       <use xlink:href="#DejaVuSans-30"/>
       <use xlink:href="#DejaVuSans-2e" transform="translate(63.623047 0)"/>
       <use xlink:href="#DejaVuSans-30" transform="translate(95.410156 0)"/>
       <use xlink:href="#DejaVuSans-34" transform="translate(159.033203 0)"/>
      </g>
     </g>
    </g>
    <g id="ytick_6">
     <g id="line2d_11">
      <g>
       <use xlink:href="#macdf2c046a" x="49.825" y="75.481475" style="stroke: #000000; stroke-width: 0.8"/>
      </g>
     </g>
     <g id="text_11">
      <!-- 0.05 -->
      <g transform="translate(7.2 81.560225) scale(0.16 -0.16)">
       <use xlink:href="#DejaVuSans-30"/>
       <use xlink:href="#DejaVuSans-2e" transform="translate(63.623047 0)"/>
       <use xlink:href="#DejaVuSans-30" transform="translate(95.410156 0)"/>
       <use xlink:href="#DejaVuSans-35" transform="translate(159.033203 0)"/>
      </g>
     </g>
    </g>
   </g>
   <g id="line2d_12">
    <path d="M 51.719375 120.217817 
L 106.65625 120.134112 
L 114.23375 120.371081 
L 121.81125 120.842494 
L 127.494375 121.390993 
L 133.1775 122.136889 
L 138.860625 123.103412 
L 144.54375 124.312529 
L 150.226875 125.783387 
L 155.91 127.534736 
L 161.593125 129.583518 
L 167.27625 131.947155 
L 172.959375 134.642185 
L 178.6425 137.68599 
L 184.325625 141.097109 
L 188.114375 143.584329 
L 191.903125 146.249404 
L 195.691875 149.098739 
L 199.480625 152.132434 
L 205.16375 157.073508 
L 208.9525 160.6241 
L 212.74125 164.393395 
L 216.53 168.388629 
L 220.31875 172.623686 
L 224.1075 177.107244 
L 227.89625 181.84751 
L 231.685 186.861159 
L 235.47375 192.16025 
L 240.209688 199.204142 
L 243.998438 205.098827 
L 244.945625 207.86774 
L 247.787188 212.627591 
L 250.62875 217.860461 
L 261.995 240.351678 
L 265.78375 247.002987 
L 268.625313 251.614493 
L 271.466875 255.896813 
L 274.308438 259.854373 
L 277.15 263.49824 
L 279.991563 266.844044 
L 282.833125 269.9102 
L 285.674688 272.716516 
L 288.51625 275.283148 
L 292.305 278.366542 
L 296.09375 281.103254 
L 299.8825 283.533911 
L 303.67125 285.694985 
L 307.46 287.618809 
L 312.195938 289.732932 
L 316.931875 291.568376 
L 322.615 293.459446 
L 328.298125 295.064937 
L 333.98125 296.432087 
L 339.664375 297.599541 
L 347.241875 298.899545 
L 354.819375 299.960684 
L 364.29125 301.021888 
L 373.763125 301.853047 
L 385.129375 302.619921 
L 398.39 303.279271 
L 413.545 303.812301 
L 428.7 304.182329 
L 428.7 304.182329 
" clip-path="url(#p225b831ab1)" style="fill: none; stroke: #000000; stroke-linecap: square"/>
   </g>
   <g id="line2d_13">
    <path d="M 51.719375 124.914502 
L 106.65625 124.832137 
L 114.23375 125.09696 
L 121.81125 125.601627 
L 127.494375 126.179211 
L 133.1775 126.955678 
L 138.860625 127.955125 
L 144.54375 129.198253 
L 150.226875 130.705339 
L 155.91 132.494055 
L 161.593125 134.581858 
L 167.27625 136.987007 
L 172.959375 139.724469 
L 178.6425 142.812081 
L 184.325625 146.268234 
L 190.00875 150.110492 
L 193.7975 152.897122 
L 197.58625 155.870971 
L 201.375 159.038184 
L 205.16375 162.406294 
L 208.9525 165.982735 
L 212.74125 169.775388 
L 216.53 173.792593 
L 220.31875 178.043108 
L 224.1075 182.536148 
L 227.89625 187.280391 
L 231.685 192.288404 
L 235.47375 197.575663 
L 240.209688 204.592517 
L 244.945625 212.023321 
L 246.84 215.942802 
L 249.681563 221.072439 
L 252.523125 226.847175 
L 257.259063 236.506371 
L 261.047813 243.683839 
L 263.889375 248.669216 
L 266.730938 253.295643 
L 269.5725 257.562211 
L 272.414063 261.478243 
L 275.255625 265.060141 
L 278.097188 268.328727 
L 280.93875 271.307126 
L 283.780313 274.01918 
L 286.621875 276.488354 
L 290.410625 279.441264 
L 294.199375 282.050923 
L 297.988125 284.360924 
L 301.776875 286.409523 
L 305.565625 288.229977 
L 310.301563 290.22814 
L 315.0375 291.9621 
L 320.720625 293.749339 
L 326.40375 295.268739 
L 332.086875 296.565387 
L 339.664375 298.009855 
L 347.241875 299.19095 
L 354.819375 300.161335 
L 364.29125 301.13947 
L 375.6575 302.047145 
L 388.918125 302.834103 
L 404.073125 303.477474 
L 421.1225 303.976436 
L 428.7 304.142981 
L 428.7 304.142981 
" clip-path="url(#p225b831ab1)" style="fill: none; stroke: #0000ff; stroke-linecap: square"/>
   </g>
   <g id="line2d_14">
    <path d="M 51.719375 123.852362 
L 72.5575 123.591457 
L 99.07875 123.438129 
L 108.550625 123.58828 
L 116.128125 123.916131 
L 123.705625 124.505975 
L 129.38875 125.158954 
L 135.071875 126.021369 
L 140.755 127.115994 
L 146.438125 128.46246 
L 152.12125 130.081324 
L 157.804375 131.99082 
L 163.4875 134.207423 
L 169.170625 136.750177 
L 174.85375 139.634959 
L 180.536875 142.880861 
L 186.22 146.506226 
L 190.00875 149.143894 
L 193.7975 151.965573 
L 199.480625 156.551246 
L 205.16375 161.601388 
L 208.9525 165.228613 
L 212.74125 169.076822 
L 216.53 173.154396 
L 220.31875 177.470897 
L 224.1075 182.035425 
L 227.89625 186.856983 
L 231.685 191.94601 
L 235.47375 197.318544 
L 240.209688 204.446028 
L 243.998438 210.41786 
L 245.892812 214.71427 
L 248.734375 219.646107 
L 251.575938 225.141834 
L 258.20625 238.597651 
L 261.995 245.654961 
L 264.836563 250.54064 
L 267.678125 255.063092 
L 270.519688 259.22463 
L 273.36125 263.037139 
L 276.202813 266.518906 
L 279.044375 269.692006 
L 281.885938 272.580293 
L 284.7275 275.207937 
L 287.569063 277.598446 
L 291.357813 280.455145 
L 295.146563 282.977905 
L 298.935313 285.209515 
L 302.724063 287.187387 
L 306.512813 288.943961 
L 311.24875 290.870759 
L 315.0375 292.225939 
L 320.720625 293.994838 
L 326.40375 295.496243 
L 332.086875 296.77551 
L 339.664375 298.198044 
L 347.241875 299.358817 
L 354.819375 300.31058 
L 364.29125 301.267819 
L 375.6575 302.153743 
L 388.918125 302.919486 
L 404.073125 303.543355 
L 423.016875 304.068111 
L 428.7 304.18577 
L 428.7 304.18577 
" clip-path="url(#p225b831ab1)" style="fill: none; stroke: #ff0000; stroke-width: 1.5; stroke-linecap: square"/>
   </g>
   <g id="line2d_15">
    <path d="M 51.719375 103.271336 
L 64.98 103.411254 
L 80.135 103.774504 
L 91.50125 104.248783 
L 99.07875 104.738736 
L 106.65625 105.439434 
L 112.339375 106.143088 
L 118.0225 107.029916 
L 123.705625 108.12704 
L 129.38875 109.460224 
L 135.071875 111.060329 
L 140.755 112.934414 
L 146.438125 115.126446 
L 152.12125 117.656492 
L 155.91 119.544977 
L 159.69875 121.605861 
L 163.4875 123.848068 
L 167.27625 126.283051 
L 171.065 128.922392 
L 174.85375 131.777998 
L 178.6425 134.864892 
L 182.43125 138.198481 
L 186.22 141.797024 
L 190.00875 145.679881 
L 193.7975 149.870986 
L 197.58625 154.396887 
L 201.375 159.287527 
L 205.16375 164.579785 
L 208.9525 170.315862 
L 212.74125 176.546826 
L 216.53 183.338658 
L 220.31875 190.76104 
L 224.1075 198.913432 
L 227.89625 207.937111 
L 231.685 218.007674 
L 233.579375 223.517826 
L 235.47375 229.40999 
L 237.368125 235.757094 
L 240.209688 246.395871 
L 242.104062 254.691933 
L 243.05125 259.503396 
L 243.998438 265.383262 
L 244.945625 304.993369 
L 258.20625 304.967471 
L 290.410625 305.05332 
L 428.7 305.055235 
L 428.7 305.055235 
" clip-path="url(#p225b831ab1)" style="fill: none; stroke-dasharray: 3.7,1.6; stroke-dashoffset: 0; stroke: #000000"/>
   </g>
   <g id="line2d_16">
    <path d="M 51.719375 99.950694 
L 64.98 100.072698 
L 80.135 100.448259 
L 91.50125 100.916064 
L 100.973125 101.535641 
L 108.550625 102.269421 
L 114.23375 103.003278 
L 119.916875 103.925861 
L 125.6 105.063598 
L 131.283125 106.442962 
L 136.96625 108.088876 
L 142.649375 110.026714 
L 148.3325 112.283505 
L 154.015625 114.885075 
L 157.804375 116.826103 
L 161.593125 118.94369 
L 165.381875 121.247024 
L 169.170625 123.748362 
L 172.959375 126.459466 
L 176.748125 129.394527 
L 180.536875 132.568228 
L 184.325625 135.997713 
L 188.114375 139.702949 
L 191.903125 143.705558 
L 195.691875 148.031027 
L 199.480625 152.709413 
L 203.269375 157.77468 
L 207.058125 163.267526 
L 210.846875 169.236487 
L 214.635625 175.740229 
L 218.424375 182.850891 
L 222.213125 190.659253 
L 226.001875 199.282792 
L 229.790625 208.883966 
L 231.685 214.114953 
L 233.579375 219.680239 
L 235.47375 225.629692 
L 237.368125 232.031382 
L 240.209688 242.706791 
L 242.104062 250.810363 
L 243.998438 260.340677 
L 244.945625 266.17545 
L 246.84 304.477071 
L 250.62875 304.347252 
L 253.470313 304.716835 
L 261.047813 304.899364 
L 273.36125 304.996544 
L 318.82625 305.047788 
L 428.7 305.05507 
L 428.7 305.05507 
" clip-path="url(#p225b831ab1)" style="fill: none; stroke-dasharray: 3.7,1.6; stroke-dashoffset: 0; stroke: #0000ff"/>
   </g>
   <g id="line2d_17">
    <path d="M 51.719375 100.825691 
L 64.98 101.033807 
L 82.029375 101.528132 
L 93.395625 102.054241 
L 100.973125 102.579367 
L 108.550625 103.320896 
L 114.23375 104.0596 
L 119.916875 104.986269 
L 125.6 106.128485 
L 131.283125 107.512388 
L 136.96625 109.163017 
L 142.649375 111.106351 
L 148.3325 113.367957 
L 154.015625 115.976251 
L 157.804375 117.921303 
L 161.593125 120.04305 
L 165.381875 122.351236 
L 169.170625 124.857026 
L 172.959375 127.573189 
L 176.748125 130.512829 
L 180.536875 133.691135 
L 184.325625 137.125188 
L 188.114375 140.834832 
L 191.903125 144.841658 
L 195.691875 149.171544 
L 199.480625 153.860186 
L 203.269375 158.921196 
L 207.058125 164.416882 
L 210.846875 170.38749 
L 214.635625 176.892555 
L 218.424375 184.003404 
L 222.213125 191.812279 
L 226.001875 200.435745 
L 229.790625 210.041018 
L 231.685 215.278258 
L 233.579375 220.854638 
L 235.47375 226.822727 
L 237.368125 233.256715 
L 240.209688 244.033183 
L 242.104062 252.377439 
L 243.05125 257.153673 
L 243.998438 262.717798 
L 245.892812 304.651651 
L 248.734375 304.232349 
L 250.62875 303.956478 
L 252.523125 304.054402 
L 257.259063 304.450531 
L 262.942188 304.640824 
L 278.097188 304.846779 
L 307.46 304.984815 
L 381.340625 305.047687 
L 428.7 305.053138 
L 428.7 305.053138 
" clip-path="url(#p225b831ab1)" style="fill: none; stroke-dasharray: 5.55,2.4; stroke-dashoffset: 0; stroke: #ff0000; stroke-width: 1.5"/>
   </g>
   <g id="patch_3">
    <path d="M 49.825 305.055235 
L 49.825 75.481475 
" style="fill: none; stroke: #000000; stroke-width: 0.8; stroke-linejoin: miter; stroke-linecap: square"/>
   </g>
   <g id="patch_4">
    <path d="M 428.7 305.055235 
L 428.7 75.481475 
" style="fill: none; stroke: #000000; stroke-width: 0.8; stroke-linejoin: miter; stroke-linecap: square"/>
   </g>
   <g id="patch_5">
    <path d="M 49.825 305.055235 
L 428.7 305.055235 
" style="fill: none; stroke: #000000; stroke-width: 0.8; stroke-linejoin: miter; stroke-linecap: square"/>
   </g>
   <g id="patch_6">
    <path d="M 49.825 75.481475 
L 428.7 75.481475 
" style="fill: none; stroke: #000000; stroke-width: 0.8; stroke-linejoin: miter; stroke-linecap: square"/>
   </g>
   <g id="legend_1">
    <g id="text_12">
     <!-- Onsite-$s$ -->
     <g transform="translate(115.1825 21.118125) scale(0.12 -0.12)">
      <defs>
       <path id="DejaVuSans-Bold-4f" d="M 2719 3878 
Q 2169 3878 1866 3472 
Q 1563 3066 1563 2328 
Q 1563 1594 1866 1187 
Q 2169 781 2719 781 
Q 3272 781 3575 1187 
Q 3878 1594 3878 2328 
Q 3878 3066 3575 3472 
Q 3272 3878 2719 3878 
z
M 2719 4750 
Q 3844 4750 4481 4106 
Q 5119 3463 5119 2328 
Q 5119 1197 4481 553 
Q 3844 -91 2719 -91 
Q 1597 -91 958 553 
Q 319 1197 319 2328 
Q 319 3463 958 4106 
Q 1597 4750 2719 4750 
z
" transform="scale(0.015625)"/>
       <path id="DejaVuSans-Bold-6e" d="M 4056 2131 
L 4056 0 
L 2931 0 
L 2931 347 
L 2931 1631 
Q 2931 2084 2911 2256 
Q 2891 2428 2841 2509 
Q 2775 2619 2662 2680 
Q 2550 2741 2406 2741 
Q 2056 2741 1856 2470 
Q 1656 2200 1656 1722 
L 1656 0 
L 538 0 
L 538 3500 
L 1656 3500 
L 1656 2988 
Q 1909 3294 2193 3439 
Q 2478 3584 2822 3584 
Q 3428 3584 3742 3212 
Q 4056 2841 4056 2131 
z
" transform="scale(0.015625)"/>
       <path id="DejaVuSans-Bold-73" d="M 3272 3391 
L 3272 2541 
Q 2913 2691 2578 2766 
Q 2244 2841 1947 2841 
Q 1628 2841 1473 2761 
Q 1319 2681 1319 2516 
Q 1319 2381 1436 2309 
Q 1553 2238 1856 2203 
L 2053 2175 
Q 2913 2066 3209 1816 
Q 3506 1566 3506 1031 
Q 3506 472 3093 190 
Q 2681 -91 1863 -91 
Q 1516 -91 1145 -36 
Q 775 19 384 128 
L 384 978 
Q 719 816 1070 734 
Q 1422 653 1784 653 
Q 2113 653 2278 743 
Q 2444 834 2444 1013 
Q 2444 1163 2330 1236 
Q 2216 1309 1875 1350 
L 1678 1375 
Q 931 1469 631 1722 
Q 331 1975 331 2491 
Q 331 3047 712 3315 
Q 1094 3584 1881 3584 
Q 2191 3584 2531 3537 
Q 2872 3491 3272 3391 
z
" transform="scale(0.015625)"/>
       <path id="DejaVuSans-Bold-69" d="M 538 3500 
L 1656 3500 
L 1656 0 
L 538 0 
L 538 3500 
z
M 538 4863 
L 1656 4863 
L 1656 3950 
L 538 3950 
L 538 4863 
z
" transform="scale(0.015625)"/>
       <path id="DejaVuSans-Bold-74" d="M 1759 4494 
L 1759 3500 
L 2913 3500 
L 2913 2700 
L 1759 2700 
L 1759 1216 
Q 1759 972 1856 886 
Q 1953 800 2241 800 
L 2816 800 
L 2816 0 
L 1856 0 
Q 1194 0 917 276 
Q 641 553 641 1216 
L 641 2700 
L 84 2700 
L 84 3500 
L 641 3500 
L 641 4494 
L 1759 4494 
z
" transform="scale(0.015625)"/>
       <path id="DejaVuSans-Bold-65" d="M 4031 1759 
L 4031 1441 
L 1416 1441 
Q 1456 1047 1700 850 
Q 1944 653 2381 653 
Q 2734 653 3104 758 
Q 3475 863 3866 1075 
L 3866 213 
Q 3469 63 3072 -14 
Q 2675 -91 2278 -91 
Q 1328 -91 801 392 
Q 275 875 275 1747 
Q 275 2603 792 3093 
Q 1309 3584 2216 3584 
Q 3041 3584 3536 3087 
Q 4031 2591 4031 1759 
z
M 2881 2131 
Q 2881 2450 2695 2645 
Q 2509 2841 2209 2841 
Q 1884 2841 1681 2658 
Q 1478 2475 1428 2131 
L 2881 2131 
z
" transform="scale(0.015625)"/>
       <path id="DejaVuSans-Bold-2d" d="M 347 2297 
L 2309 2297 
L 2309 1388 
L 347 1388 
L 347 2297 
z
" transform="scale(0.015625)"/>
       <path id="DejaVuSans-Oblique-73" d="M 3200 3397 
L 3091 2853 
Q 2863 2978 2609 3040 
Q 2356 3103 2088 3103 
Q 1634 3103 1373 2948 
Q 1113 2794 1113 2528 
Q 1113 2219 1719 2053 
Q 1766 2041 1788 2034 
L 1972 1978 
Q 2547 1819 2739 1644 
Q 2931 1469 2931 1166 
Q 2931 609 2489 259 
Q 2047 -91 1331 -91 
Q 1053 -91 747 -37 
Q 441 16 72 128 
L 184 722 
Q 500 559 806 475 
Q 1113 391 1394 391 
Q 1816 391 2080 572 
Q 2344 753 2344 1031 
Q 2344 1331 1650 1516 
L 1591 1531 
L 1394 1581 
Q 956 1697 753 1886 
Q 550 2075 550 2369 
Q 550 2928 970 3256 
Q 1391 3584 2113 3584 
Q 2397 3584 2667 3537 
Q 2938 3491 3200 3397 
z
" transform="scale(0.015625)"/>
      </defs>
      <use xlink:href="#DejaVuSans-Bold-4f" transform="translate(0 0.015625)"/>
      <use xlink:href="#DejaVuSans-Bold-6e" transform="translate(85.009766 0.015625)"/>
      <use xlink:href="#DejaVuSans-Bold-73" transform="translate(156.201172 0.015625)"/>
      <use xlink:href="#DejaVuSans-Bold-69" transform="translate(215.722656 0.015625)"/>
      <use xlink:href="#DejaVuSans-Bold-74" transform="translate(250 0.015625)"/>
      <use xlink:href="#DejaVuSans-Bold-65" transform="translate(297.802734 0.015625)"/>
      <use xlink:href="#DejaVuSans-Bold-2d" transform="translate(365.625 0.015625)"/>
      <use xlink:href="#DejaVuSans-Oblique-73" transform="translate(407.128906 0.015625)"/>
     </g>
    </g>
    <g id="line2d_18">
     <path d="M 81.5825 34.531875 
L 93.5825 34.531875 
L 105.5825 34.531875 
" style="fill: none; stroke: #000000; stroke-linecap: square"/>
    </g>
    <g id="text_13">
     <!-- $p_x$ -->
     <g transform="translate(115.1825 38.731875) scale(0.12 -0.12)">
      <defs>
       <path id="DejaVuSans-Oblique-70" d="M 3175 2156 
Q 3175 2616 2975 2859 
Q 2775 3103 2400 3103 
Q 2144 3103 1911 2972 
Q 1678 2841 1497 2591 
Q 1319 2344 1212 1994 
Q 1106 1644 1106 1300 
Q 1106 863 1306 627 
Q 1506 391 1875 391 
Q 2147 391 2380 519 
Q 2613 647 2778 891 
Q 2956 1147 3065 1494 
Q 3175 1841 3175 2156 
z
M 1394 2969 
Q 1625 3272 1939 3428 
Q 2253 3584 2638 3584 
Q 3175 3584 3472 3232 
Q 3769 2881 3769 2247 
Q 3769 1728 3584 1258 
Q 3400 788 3053 416 
Q 2822 169 2531 39 
Q 2241 -91 1919 -91 
Q 1547 -91 1294 64 
Q 1041 219 916 525 
L 556 -1331 
L -19 -1331 
L 922 3500 
L 1497 3500 
L 1394 2969 
z
" transform="scale(0.015625)"/>
       <path id="DejaVuSans-Oblique-78" d="M 3841 3500 
L 2234 1784 
L 3219 0 
L 2559 0 
L 1819 1388 
L 531 0 
L -166 0 
L 1556 1844 
L 641 3500 
L 1300 3500 
L 1972 2234 
L 3144 3500 
L 3841 3500 
z
" transform="scale(0.015625)"/>
      </defs>
      <use xlink:href="#DejaVuSans-Oblique-70"/>
      <use xlink:href="#DejaVuSans-Oblique-78" transform="translate(63.476562 -16.40625) scale(0.7)"/>
     </g>
    </g>
    <g id="line2d_19">
     <path d="M 81.5825 52.17 
L 93.5825 52.17 
L 105.5825 52.17 
" style="fill: none; stroke-dasharray: 3.7,1.6; stroke-dashoffset: 0; stroke: #000000"/>
    </g>
    <g id="text_14">
     <!-- $p_y$ -->
     <g transform="translate(115.1825 56.37) scale(0.12 -0.12)">
      <defs>
       <path id="DejaVuSans-Oblique-79" d="M 1588 -325 
Q 1188 -997 936 -1164 
Q 684 -1331 294 -1331 
L -159 -1331 
L -63 -850 
L 269 -850 
Q 509 -850 678 -719 
Q 847 -588 1056 -206 
L 1234 128 
L 459 3500 
L 1069 3500 
L 1650 819 
L 3256 3500 
L 3859 3500 
L 1588 -325 
z
" transform="scale(0.015625)"/>
      </defs>
      <use xlink:href="#DejaVuSans-Oblique-70"/>
      <use xlink:href="#DejaVuSans-Oblique-79" transform="translate(63.476562 -16.40625) scale(0.7)"/>
     </g>
    </g>
    <g id="text_15">
     <!-- Extended-$s$ -->
     <g transform="translate(227.9825 21.118125) scale(0.12 -0.12)">
      <defs>
       <path id="DejaVuSans-45" d="M 628 4666 
L 3578 4666 
L 3578 4134 
L 1259 4134 
L 1259 2753 
L 3481 2753 
L 3481 2222 
L 1259 2222 
L 1259 531 
L 3634 531 
L 3634 0 
L 628 0 
L 628 4666 
z
" transform="scale(0.015625)"/>
       <path id="DejaVuSans-78" d="M 3513 3500 
L 2247 1797 
L 3578 0 
L 2900 0 
L 1881 1375 
L 863 0 
L 184 0 
L 1544 1831 
L 300 3500 
L 978 3500 
L 1906 2253 
L 2834 3500 
L 3513 3500 
z
" transform="scale(0.015625)"/>
       <path id="DejaVuSans-74" d="M 1172 4494 
L 1172 3500 
L 2356 3500 
L 2356 3053 
L 1172 3053 
L 1172 1153 
Q 1172 725 1289 603 
Q 1406 481 1766 481 
L 2356 481 
L 2356 0 
L 1766 0 
Q 1100 0 847 248 
Q 594 497 594 1153 
L 594 3053 
L 172 3053 
L 172 3500 
L 594 3500 
L 594 4494 
L 1172 4494 
z
" transform="scale(0.015625)"/>
       <path id="DejaVuSans-65" d="M 3597 1894 
L 3597 1613 
L 953 1613 
Q 991 1019 1311 708 
Q 1631 397 2203 397 
Q 2534 397 2845 478 
Q 3156 559 3463 722 
L 3463 178 
Q 3153 47 2828 -22 
Q 2503 -91 2169 -91 
Q 1331 -91 842 396 
Q 353 884 353 1716 
Q 353 2575 817 3079 
Q 1281 3584 2069 3584 
Q 2775 3584 3186 3129 
Q 3597 2675 3597 1894 
z
M 3022 2063 
Q 3016 2534 2758 2815 
Q 2500 3097 2075 3097 
Q 1594 3097 1305 2825 
Q 1016 2553 972 2059 
L 3022 2063 
z
" transform="scale(0.015625)"/>
       <path id="DejaVuSans-6e" d="M 3513 2113 
L 3513 0 
L 2938 0 
L 2938 2094 
Q 2938 2591 2744 2837 
Q 2550 3084 2163 3084 
Q 1697 3084 1428 2787 
Q 1159 2491 1159 1978 
L 1159 0 
L 581 0 
L 581 3500 
L 1159 3500 
L 1159 2956 
Q 1366 3272 1645 3428 
Q 1925 3584 2291 3584 
Q 2894 3584 3203 3211 
Q 3513 2838 3513 2113 
z
" transform="scale(0.015625)"/>
       <path id="DejaVuSans-64" d="M 2906 2969 
L 2906 4863 
L 3481 4863 
L 3481 0 
L 2906 0 
L 2906 525 
Q 2725 213 2448 61 
Q 2172 -91 1784 -91 
Q 1150 -91 751 415 
Q 353 922 353 1747 
Q 353 2572 751 3078 
Q 1150 3584 1784 3584 
Q 2172 3584 2448 3432 
Q 2725 3281 2906 2969 
z
M 947 1747 
Q 947 1113 1208 752 
Q 1469 391 1925 391 
Q 2381 391 2643 752 
Q 2906 1113 2906 1747 
Q 2906 2381 2643 2742 
Q 2381 3103 1925 3103 
Q 1469 3103 1208 2742 
Q 947 2381 947 1747 
z
" transform="scale(0.015625)"/>
       <path id="DejaVuSans-2d" d="M 313 2009 
L 1997 2009 
L 1997 1497 
L 313 1497 
L 313 2009 
z
" transform="scale(0.015625)"/>
      </defs>
      <use xlink:href="#DejaVuSans-45" transform="translate(0 0.015625)"/>
      <use xlink:href="#DejaVuSans-78" transform="translate(63.183594 0.015625)"/>
      <use xlink:href="#DejaVuSans-74" transform="translate(122.363281 0.015625)"/>
      <use xlink:href="#DejaVuSans-65" transform="translate(161.572266 0.015625)"/>
      <use xlink:href="#DejaVuSans-6e" transform="translate(223.095703 0.015625)"/>
      <use xlink:href="#DejaVuSans-64" transform="translate(286.474609 0.015625)"/>
      <use xlink:href="#DejaVuSans-65" transform="translate(349.951172 0.015625)"/>
      <use xlink:href="#DejaVuSans-64" transform="translate(411.474609 0.015625)"/>
      <use xlink:href="#DejaVuSans-2d" transform="translate(474.951172 0.015625)"/>
      <use xlink:href="#DejaVuSans-Oblique-73" transform="translate(511.035156 0.015625)"/>
     </g>
    </g>
    <g id="line2d_20">
     <path d="M 194.3825 34.531875 
L 206.3825 34.531875 
L 218.3825 34.531875 
" style="fill: none; stroke: #0000ff; stroke-linecap: square"/>
    </g>
    <g id="text_16">
     <!-- $p_x$ -->
     <g transform="translate(227.9825 38.731875) scale(0.12 -0.12)">
      <use xlink:href="#DejaVuSans-Oblique-70"/>
      <use xlink:href="#DejaVuSans-Oblique-78" transform="translate(63.476562 -16.40625) scale(0.7)"/>
     </g>
    </g>
    <g id="line2d_21">
     <path d="M 194.3825 52.17 
L 206.3825 52.17 
L 218.3825 52.17 
" style="fill: none; stroke-dasharray: 3.7,1.6; stroke-dashoffset: 0; stroke: #0000ff"/>
    </g>
    <g id="text_17">
     <!-- $p_x$ -->
     <g transform="translate(227.9825 56.37) scale(0.12 -0.12)">
      <use xlink:href="#DejaVuSans-Oblique-70"/>
      <use xlink:href="#DejaVuSans-Oblique-78" transform="translate(63.476562 -16.40625) scale(0.7)"/>
     </g>
    </g>
    <g id="text_18">
     <!-- $d$-wave -->
     <g transform="translate(353.2625 21.118125) scale(0.12 -0.12)">
      <defs>
       <path id="DejaVuSans-Oblique-64" d="M 2675 525 
Q 2444 222 2128 65 
Q 1813 -91 1428 -91 
Q 903 -91 598 267 
Q 294 625 294 1247 
Q 294 1766 478 2236 
Q 663 2706 1013 3078 
Q 1244 3325 1534 3454 
Q 1825 3584 2144 3584 
Q 2481 3584 2739 3421 
Q 2997 3259 3138 2956 
L 3513 4863 
L 4091 4863 
L 3144 0 
L 2566 0 
L 2675 525 
z
M 891 1350 
Q 891 897 1095 644 
Q 1300 391 1663 391 
Q 1931 391 2161 520 
Q 2391 650 2566 903 
Q 2750 1166 2856 1509 
Q 2963 1853 2963 2188 
Q 2963 2622 2758 2865 
Q 2553 3109 2194 3109 
Q 1922 3109 1687 2981 
Q 1453 2853 1288 2613 
Q 1106 2353 998 2009 
Q 891 1666 891 1350 
z
" transform="scale(0.015625)"/>
       <path id="DejaVuSans-77" d="M 269 3500 
L 844 3500 
L 1563 769 
L 2278 3500 
L 2956 3500 
L 3675 769 
L 4391 3500 
L 4966 3500 
L 4050 0 
L 3372 0 
L 2619 2869 
L 1863 0 
L 1184 0 
L 269 3500 
z
" transform="scale(0.015625)"/>
       <path id="DejaVuSans-61" d="M 2194 1759 
Q 1497 1759 1228 1600 
Q 959 1441 959 1056 
Q 959 750 1161 570 
Q 1363 391 1709 391 
Q 2188 391 2477 730 
Q 2766 1069 2766 1631 
L 2766 1759 
L 2194 1759 
z
M 3341 1997 
L 3341 0 
L 2766 0 
L 2766 531 
Q 2569 213 2275 61 
Q 1981 -91 1556 -91 
Q 1019 -91 701 211 
Q 384 513 384 1019 
Q 384 1609 779 1909 
Q 1175 2209 1959 2209 
L 2766 2209 
L 2766 2266 
Q 2766 2663 2505 2880 
Q 2244 3097 1772 3097 
Q 1472 3097 1187 3025 
Q 903 2953 641 2809 
L 641 3341 
Q 956 3463 1253 3523 
Q 1550 3584 1831 3584 
Q 2591 3584 2966 3190 
Q 3341 2797 3341 1997 
z
" transform="scale(0.015625)"/>
       <path id="DejaVuSans-76" d="M 191 3500 
L 800 3500 
L 1894 563 
L 2988 3500 
L 3597 3500 
L 2284 0 
L 1503 0 
L 191 3500 
z
" transform="scale(0.015625)"/>
      </defs>
      <use xlink:href="#DejaVuSans-Oblique-64" transform="translate(0 0.015625)"/>
      <use xlink:href="#DejaVuSans-2d" transform="translate(63.476562 0.015625)"/>
      <use xlink:href="#DejaVuSans-77" transform="translate(99.560547 0.015625)"/>
      <use xlink:href="#DejaVuSans-61" transform="translate(181.347656 0.015625)"/>
      <use xlink:href="#DejaVuSans-76" transform="translate(242.626953 0.015625)"/>
      <use xlink:href="#DejaVuSans-65" transform="translate(301.806641 0.015625)"/>
     </g>
    </g>
    <g id="line2d_22">
     <path d="M 319.6625 34.531875 
L 331.6625 34.531875 
L 343.6625 34.531875 
" style="fill: none; stroke: #ff0000; stroke-width: 1.5; stroke-linecap: square"/>
    </g>
    <g id="text_19">
     <!-- $p_x$ -->
     <g transform="translate(353.2625 38.731875) scale(0.12 -0.12)">
      <use xlink:href="#DejaVuSans-Oblique-70"/>
      <use xlink:href="#DejaVuSans-Oblique-78" transform="translate(63.476562 -16.40625) scale(0.7)"/>
     </g>
    </g>
    <g id="line2d_23">
     <path d="M 319.6625 52.17 
L 331.6625 52.17 
L 343.6625 52.17 
" style="fill: none; stroke-dasharray: 5.55,2.4; stroke-dashoffset: 0; stroke: #ff0000; stroke-width: 1.5"/>
    </g>
    <g id="text_20">
     <!-- $p_x$ -->
     <g transform="translate(353.2625 56.37) scale(0.12 -0.12)">
      <use xlink:href="#DejaVuSans-Oblique-70"/>
      <use xlink:href="#DejaVuSans-Oblique-78" transform="translate(63.476562 -16.40625) scale(0.7)"/>
     </g>
    </g>
   </g>
  </g>
 </g>
 <defs>
  <clipPath id="p225b831ab1">
   <rect x="49.825" y="75.481475" width="378.875" height="229.57376"/>
  </clipPath>
 </defs>
</svg>
